<?xml version="1.0" encoding="UTF-8" standalone="no"?>
<!-- Uploaded to: SVG Repo, www.svgrepo.com, Generator: SVG Repo Mixer Tools -->

<svg
   height="800"
   width="761.22485"
   version="1.1"
   id="Capa_1"
   viewBox="0 0 28.682001 30.143"
   xml:space="preserve"
   xmlns="http://www.w3.org/2000/svg"
   xmlns:svg="http://www.w3.org/2000/svg"><defs
   id="defs11" />
<g
   id="g6"
   transform="translate(-0.731)">
	<path
   style="fill:#030104"
   d="m 20.034,2.357 v 3.824 c 3.482,1.798 5.869,5.427 5.869,9.619 0,5.98 -4.848,10.83 -10.828,10.83 -5.982,0 -10.832,-4.85 -10.832,-10.83 0,-3.844 2.012,-7.215 5.029,-9.136 V 2.689 C 4.245,4.918 0.731,9.945 0.731,15.801 c 0,7.921 6.42,14.342 14.34,14.342 7.924,0 14.342,-6.421 14.342,-14.342 C 29.412,9.624 25.501,4.379 20.034,2.357 Z"
   id="path2" />
	<path
   style="fill:#030104"
   d="m 14.795,17.652 c 1.576,0 1.736,-0.931 1.736,-2.076 V 2.08 C 16.531,0.932 16.371,0 14.795,0 13.225,0 13.063,0.932 13.063,2.08 v 13.496 c -0.001,1.146 0.162,2.076 1.732,2.076 z"
   id="path4" />
</g>
</svg>
